<svg width="29" height="14" viewBox="0 0 29 14" fill="none" xmlns="http://www.w3.org/2000/svg">
<g style="mix-blend-mode:multiply">
<path d="M24.5734 6.88871L22.2171 4.58349C21.7831 4.15885 21.7831 3.47034 22.2171 3.04569C22.6512 2.62105 23.3549 2.62105 23.789 3.04569L28.9047 8.05064C28.9651 8.14161 29 8.24868 29 8.36328C29 8.47867 28.9647 8.58642 28.9035 8.67778L23.789 13.6815C23.3549 14.1062 22.6512 14.1062 22.2171 13.6815C21.7831 13.2569 21.7831 12.5684 22.2171 12.1437L25.0315 9.39032H18.1522C17.367 9.4461 16.5845 9.30985 15.8045 8.98157C14.5491 8.43948 13.5316 7.37688 12.7518 5.7937L12.2018 4.5865C11.7512 3.64586 11.1939 3.04117 10.5299 2.7724C10.203 2.63189 9.88274 2.55001 9.56921 2.52677C9.56831 2.52671 9.56754 2.5274 9.56754 2.52828C9.56754 2.52913 9.56685 2.52981 9.56598 2.52981H1.29291C0.578857 2.52981 0 1.96349 0 1.2649C0 0.566324 0.578857 0 1.29291 0H9.56754C10.2632 0.00304185 10.9572 0.155922 11.6498 0.458577C12.8347 0.97214 13.7805 1.89816 14.487 3.23665L15.3214 4.98336C15.7562 5.84973 16.2906 6.41119 16.9244 6.66773C17.1436 6.75643 17.3625 6.8188 17.5811 6.85476L17.5823 6.85524C17.5831 6.85576 17.5836 6.85663 17.5836 6.8576C17.5836 6.85919 17.5849 6.86049 17.5865 6.86049H17.6151C17.6167 6.86049 17.6183 6.86061 17.6199 6.86084C17.78 6.8849 17.94 6.89481 18.0998 6.89057L18.1003 6.89041L18.1008 6.88964C18.1008 6.88913 18.1012 6.88871 18.1017 6.88871H24.5734Z" fill="#DDDDDD"/>
</g>
</svg>
